# xmcd
#
# Track frame offsets:
#	150
#	28052
#	43475
#	59325
#	83722
#	104207
#	119452
#	141112
#	155245
#	177810
#	192680
#
# Disc length: 2912 seconds
#
# Revision: 1
# Processed by: cddbd v1.5PL3 Copyright (c) Steve Scherf et al.
# Submitted via: CDex 1.50Beta5
#
DISCID=aa0b5e0b
DTITLE=チョコレート・ファッション - CHOCOLATE FASHION I
DYEAR=1995
DGENRE=Pop
TTITLE0=夢のあとに
TTITLE1=美女と野獣
TTITLE2=Hotel
TTITLE3=いわゆるひとつのジムノペディ
TTITLE4=ケイコ・D
TTITLE5=シェリーにくちづけ
TTITLE6=月の光
TTITLE7=ゴリウォークのケーキウォーク
TTITLE8=ケイコ・D
TTITLE9=夢見るシャンソン人形
TTITLE10=PAVANE
EXTD=
EXTT0=
EXTT1=
EXTT2=
EXTT3=
EXTT4=
EXTT5=
EXTT6=
EXTT7=
EXTT8=
EXTT9=
EXTT10=
PLAYORDER=
